<?xml version="1.0" standalone="no"?>
<!DOCTYPE svg PUBLIC "-//W3C//DTD SVG 20010904//EN"
 "http://www.w3.org/TR/2001/REC-SVG-20010904/DTD/svg10.dtd">
<svg version="1.0" xmlns="http://www.w3.org/2000/svg"
 width="260.000000pt" height="260.000000pt" viewBox="0 0 260.000000 260.000000"
 preserveAspectRatio="xMidYMid meet">
<metadata>
Created by potrace 1.11, written by Peter Selinger 2001-2013
</metadata>
<g transform="translate(0.000000,260.000000) scale(0.100000,-0.100000)"
fill="#000000" stroke="none">
<path d="M0 1300 l0 -1300 1300 0 1300 0 0 1300 0 1300 -1300 0 -1300 0 0
-1300z m958 -40 l72 -23 0 -69 c0 -38 -3 -68 -7 -66 -104 52 -150 69 -213 79
-152 24 -260 -28 -260 -123 0 -85 36 -108 217 -143 199 -38 269 -84 292 -187
25 -111 -29 -210 -144 -268 -69 -35 -70 -35 -200 -34 -114 0 -140 3 -212 27
l-83 28 0 70 c0 39 3 69 8 67 4 -2 36 -18 72 -36 166 -83 368 -76 427 15 24
36 22 106 -3 134 -31 34 -62 45 -202 73 -148 29 -195 48 -239 100 -41 46 -56
96 -51 166 7 95 66 161 181 202 72 26 242 20 345 -12z m423 -324 c46 -184 85
-333 87 -331 2 2 41 151 86 332 l82 328 60 3 59 3 74 -303 c41 -167 79 -321
86 -343 11 -39 14 -31 95 303 l84 342 57 0 57 0 -60 -232 c-33 -128 -82 -314
-107 -413 l-47 -180 -65 -3 -65 -3 -84 335 c-47 184 -87 330 -90 325 -3 -5
-42 -155 -85 -334 l-80 -326 -64 3 -64 3 -102 385 c-56 212 -105 397 -108 413
l-7 27 59 0 59 0 83 -334z"/>
</g>
</svg>
